<svg xmlns="http://www.w3.org/2000/svg" viewBox="0 0 24 24" width="98" height="96"><path d="M20.452 20.452h-3.554v-5.569c0-1.328-.027-3.037-1.85-3.037-1.851 0-2.134 1.445-2.134 2.939v5.667H9.36V9h3.414v1.561h.049c.476-.9 1.637-1.85 3.37-1.85 3.605 0 4.271 2.373 4.271 5.459v6.282zM5.337 7.433a2.062 2.062 0 110-4.124 2.062 2.062 0 010 4.124zM6.999 20.452H3.671V9h3.328v11.452zM22.225 0H1.771C.792 0 0 .774 0 1.729v20.542C0 23.226.792 24 1.771 24h20.451C23.2 24 24 23.226 24 22.271V1.729C24 .774 23.2 0 22.222 0h.003z"/></svg>

